<svg xmlns="http://www.w3.org/2000/svg" width="320" height="180" viewBox="0 0 320 180">
  <defs>
    <linearGradient id="bg" x1="0" y1="0" x2="1" y2="1">
      <stop offset="0" stop-color="#17140f"/>
      <stop offset="1" stop-color="#050505"/>
    </linearGradient>
    <radialGradient id="glow" cx="35%" cy="35%" r="70%">
      <stop offset="0" stop-color="#7a5e2d" stop-opacity=".35"/>
      <stop offset="1" stop-color="#080807" stop-opacity="0"/>
    </radialGradient>
  </defs>
  <rect width="320" height="180" rx="10" fill="url(#bg)"/>
  <rect width="320" height="180" rx="10" fill="url(#glow)"/>
  <g transform="translate(26 49) scale(1.08)" fill="#d8b56c">
    <path d="M8 25L32 9l24 16H8zm5 5h38v5H13v-5zm4 9h6v13h-6V39zm12 0h6v13h-6V39zm12 0h6v13h-6V39zM9 55h46v4H9v-4z"/>
  </g>
  <text x="106" y="80" fill="#f7f3e9" font-family="Georgia, serif" font-size="23">Museum</text>
  <text x="106" y="108" fill="#f7f3e9" font-family="Georgia, serif" font-size="23">at Home</text>
  <text x="107" y="132" fill="#b9aa8c" font-family="Arial, sans-serif" font-size="9" letter-spacing="1.5">ART FOR YOUR SCREEN</text>
</svg>
